<svg aria-hidden="true" style="position: absolute; width: 0; height: 0; overflow: hidden" version="1.1"
	xmlns="http://www.w3.org/2000/svg"
	xmlns:xlink="http://www.w3.org/1999/xlink">
	<defs>

		<symbol id="code" viewBox="0 0 1000 1000">
			<path d="m211.52 765.91a16 16 0 0 1 -11.31-27.32l76.35-76.35a16 16 0 0 1 22.62 22.63l-76.35 76.35a16 16 0 0 1 -11.31 4.69z"></path>
			<path d="m287.87 765.91a16 16 0 0 1 -11.31-4.69l-76.35-76.35a16 16 0 0 1 22.62-22.63l76.35 76.35a16 16 0 0 1 -11.31 27.32z"></path>
			<path d="m378.39 765.91a16 16 0 0 1 -11.31-27.32l76.35-76.35a16 16 0 0 1 22.62 22.63l-76.35 76.35a16 16 0 0 1 -11.31 4.69z"></path>
			<path d="m454.74 765.91a16 16 0 0 1 -11.31-4.69l-76.35-76.35a16 16 0 0 1 22.62-22.63l76.35 76.35a16 16 0 0 1 -11.31 27.32z"></path>
			<path d="m545.26 765.91a16 16 0 0 1 -11.26-27.32l76.35-76.35a16 16 0 0 1 22.62 22.63l-76.35 76.35a16 16 0 0 1 -11.36 4.69z"></path>
			<path d="m621.61 765.91a16 16 0 0 1 -11.31-4.69l-76.3-76.35a16 16 0 1 1 22.62-22.63l76.35 76.35a16 16 0 0 1 -11.31 27.32z"></path>
			<path d="m712.13 765.91a16 16 0 0 1 -11.31-27.32l76.35-76.35a16 16 0 0 1 22.62 22.63l-76.35 76.35a16 16 0 0 1 -11.31 4.69z"></path>
			<path d="m788.48 765.91a16 16 0 0 1 -11.31-4.69l-76.35-76.35a16 16 0 0 1 22.62-22.63l76.35 76.35a16 16 0 0 1 -11.31 27.32z"></path>
			<path d="m861 832.21h-722c-30.83 0-55-18.22-55-41.48v-233c0-23.26 24.15-41.48 55-41.48h185a16 16 0 0 1 0 32h-185c-14.83 0-23 7.12-23 9.48v233c0 2.36 8.15 9.48 23 9.48h722c14.83 0 23-7.12 23-9.48v-233c0-2.36-8.15-9.48-23-9.48h-185a16 16 0 0 1 0-32h185c30.83 0 55 18.22 55 41.48v233c0 23.27-24.15 41.48-55 41.48z"></path>
			<path d="m657.1 623.25h-314.2a34.89 34.89 0 0 1 -34.9-34.85v-195.4a34.9 34.9 0 0 1 34.86-34.86h314.24a34.9 34.9 0 0 1 34.9 34.86v195.4a34.89 34.89 0 0 1 -34.9 34.85zm-314.2-233.1a2.86 2.86 0 0 0 -2.9 2.85v195.4a2.86 2.86 0 0 0 2.86 2.85h314.24a2.86 2.86 0 0 0 2.9-2.85v-195.4a2.86 2.86 0 0 0 -2.86-2.86z"></path>
			<path d="m613.42 390.15h-226.84a16 16 0 0 1 -16-16v-102.22a104.25 104.25 0 0 1 104.13-104.14h50.58a104.25 104.25 0 0 1 104.13 104.14v102.22a16 16 0 0 1 -16 16zm-210.84-32h194.84v-86.22a72.22 72.22 0 0 0 -72.13-72.14h-50.58a72.22 72.22 0 0 0 -72.13 72.14z"></path>
			<path d="m500 529.86a16 16 0 0 1 -16-16v-46.31a16 16 0 1 1 32 0v46.31a16 16 0 0 1 -16 16z"></path>
		</symbol>

		<symbol id="upload" viewBox="0 0 32 32">
			<path d="M0 16v-1.984q0-3.328 2.336-5.664t5.664-2.336q1.024 0 2.176 0.352 0.576-2.752 2.784-4.544t5.056-1.824q3.296 0 5.632 2.368t2.368 5.632q0 0.896-0.32 2.048 0.224-0.032 0.32-0.032 2.464 0 4.224 1.76t1.76 4.224v2.016q0 2.496-1.76 4.224t-4.224 1.76h-0.384q0.288-0.8 0.352-1.44 0.096-1.312-0.32-2.56t-1.408-2.208l-4-4q-1.76-1.792-4.256-1.792t-4.224 1.76l-4 4q-0.96 0.96-1.408 2.24t-0.32 2.592q0.032 0.576 0.256 1.248-2.72-0.608-4.512-2.784t-1.792-5.056zM10.016 22.208q-0.096-0.96 0.576-1.6l4-4q0.608-0.608 1.408-0.608 0.832 0 1.408 0.608l4 4q0.672 0.64 0.608 1.6-0.032 0.288-0.16 0.576-0.224 0.544-0.736 0.896t-1.12 0.32h-1.984v6.016q0 0.832-0.608 1.408t-1.408 0.576-1.408-0.576-0.576-1.408v-6.016h-2.016q-0.608 0-1.088-0.32t-0.768-0.896q-0.096-0.288-0.128-0.576z" />
		</symbol>
		<symbol id="arrow-left" viewBox="0 0 16 16">
			<path d="M10 -3.49691e-07L2 8L10 16L12 16L12 -4.37114e-07L10 -3.49691e-07Z"></path>
		</symbol>

		<symbol id="trash" viewBox="0 0 24 24">
			<path d="M5.755,20.283,4,8H20L18.245,20.283A2,2,0,0,1,16.265,22H7.735A2,2,0,0,1,5.755,20.283ZM21,4H16V3a1,1,0,0,0-1-1H9A1,1,0,0,0,8,3V4H3A1,1,0,0,0,3,6H21a1,1,0,0,0,0-2Z" />
		</symbol>

		<symbol id="multiple-images" viewBox="0 0 20 20">
			<path d="M4 15v-3H2V2h12v3h2v3h2v10H6v-3H4zm7-12c-1.1 0-2 .9-2 2h4c0-1.1-.89-2-2-2zm-7 8V6H3v5h1zm7-3h4c0-1.1-.89-2-2-2-1.1 0-2 .9-2 2zm-5 6V9H5v5h1zm9-1c1.1 0 2-.89 2-2 0-1.1-.9-2-2-2s-2 .9-2 2c0 1.11.9 2 2 2zm2 4v-2c-5 0-5-3-10-3v5h10z"></path>
		</symbol>

		<symbol id="stars" viewBox="0 0 296.789 296.789">
			<path d="M55.093,110.761l6.544,17.743c0.246,0.668,0.882,1.111,1.593,1.111c0.711,0,1.347-0.443,1.593-1.111l6.544-17.743
			c5.297-14.364,16.62-25.687,30.983-30.983l17.743-6.544c0.667-0.246,1.11-0.882,1.11-1.593c0-0.711-0.443-1.347-1.11-1.593
			l-17.744-6.544c-14.363-5.297-25.686-16.619-30.982-30.982l-6.544-17.743c-0.246-0.667-0.882-1.11-1.593-1.11
			c-0.711,0-1.347,0.443-1.593,1.11l-6.544,17.743C49.796,46.885,38.474,58.207,24.11,63.504L6.366,70.048
			c-0.667,0.246-1.11,0.882-1.11,1.593c0,0.711,0.443,1.347,1.11,1.593l17.743,6.544C38.473,85.074,49.796,96.396,55.093,110.761z" />
			<path d="M198.948,185.703l-17.742-6.543c-14.364-5.297-25.687-16.619-30.983-30.982l-6.544-17.743
			c-0.246-0.667-0.882-1.11-1.593-1.11c-0.711,0-1.347,0.443-1.593,1.11l-6.544,17.742c-5.297,14.364-16.62,25.686-30.983,30.983
			l-17.743,6.543c-0.667,0.246-1.11,0.882-1.11,1.593c0,0.711,0.443,1.347,1.11,1.593l17.744,6.545
			c14.363,5.297,25.685,16.619,30.982,30.982l6.544,17.744c0.246,0.667,0.882,1.11,1.593,1.11c0.711,0,1.347-0.443,1.593-1.11
			l6.544-17.744c5.297-14.363,16.619-25.686,30.982-30.982l17.744-6.545c0.667-0.246,1.11-0.882,1.11-1.593
			C200.059,186.585,199.615,185.949,198.948,185.703z" />
			<path d="M290.778,109.811l-12.059-4.447c-9.761-3.6-17.456-11.295-21.056-21.056l-4.447-12.058c-0.168-0.453-0.6-0.755-1.083-0.755
			c-0.483,0-0.915,0.302-1.083,0.755l-4.446,12.057c-3.6,9.762-11.295,17.457-21.057,21.057l-12.058,4.447
			c-0.453,0.167-0.755,0.599-0.755,1.082s0.302,0.916,0.755,1.083l12.059,4.446c9.761,3.601,17.456,11.296,21.056,21.057l4.446,12.06
			c0.168,0.453,0.6,0.755,1.083,0.755c0.483,0,0.915-0.302,1.083-0.755l4.447-12.06c3.6-9.762,11.294-17.456,21.056-21.056
			l12.059-4.447c0.453-0.167,0.755-0.6,0.755-1.083S291.231,109.978,290.778,109.811z" />
			<path d="M261.567,268.552l-8.412-3.103c-6.809-2.511-12.176-7.878-14.687-14.686l-3.103-8.41c-0.116-0.316-0.418-0.526-0.755-0.526
			s-0.639,0.21-0.755,0.526l-3.103,8.41c-2.511,6.809-7.878,12.176-14.686,14.686l-8.412,3.103c-0.316,0.116-0.526,0.418-0.526,0.755
			c0,0.337,0.21,0.639,0.526,0.755l8.411,3.103c6.81,2.511,12.177,7.879,14.688,14.688l3.103,8.411
			c0.116,0.316,0.418,0.526,0.755,0.526s0.639-0.21,0.755-0.526l3.103-8.411c2.511-6.809,7.878-12.177,14.688-14.688l8.411-3.103
			c0.316-0.116,0.526-0.418,0.526-0.755C262.094,268.97,261.884,268.668,261.567,268.552z" />
			<path d="M199.533,26.726l-8.412-3.102c-6.809-2.511-12.176-7.878-14.686-14.687l-3.103-8.41C173.216,0.21,172.914,0,172.577,0
			c-0.337,0-0.639,0.21-0.755,0.526l-3.102,8.409c-2.511,6.809-7.879,12.177-14.688,14.688l-8.412,3.102
			c-0.316,0.116-0.526,0.418-0.526,0.755c0,0.337,0.21,0.639,0.526,0.755l8.411,3.103c6.81,2.511,12.178,7.879,14.689,14.689
			l3.102,8.41c0.116,0.316,0.418,0.526,0.755,0.526c0.337,0,0.639-0.21,0.755-0.526l3.103-8.411
			c2.511-6.81,7.878-12.177,14.688-14.687l8.411-3.103c0.316-0.116,0.526-0.418,0.526-0.755
			C200.06,27.144,199.85,26.842,199.533,26.726z" />
			<path d="M96.359,251.26l-10.58-3.9c-8.564-3.158-15.316-9.91-18.476-18.475l-3.901-10.58c-0.147-0.397-0.526-0.662-0.95-0.662
			c-0.424,0-0.803,0.265-0.95,0.662l-3.901,10.579c-3.158,8.565-9.91,15.317-18.476,18.476l-10.578,3.9
			c-0.399,0.146-0.662,0.526-0.662,0.95c0,0.424,0.264,0.804,0.662,0.95l10.579,3.902c8.564,3.158,15.316,9.91,18.475,18.475
			l3.901,10.58c0.147,0.398,0.526,0.662,0.95,0.662c0.424,0,0.804-0.264,0.95-0.662l3.902-10.581
			c3.158-8.564,9.909-15.315,18.474-18.474l10.581-3.902c0.398-0.146,0.662-0.526,0.662-0.95
			C97.021,251.786,96.758,251.406,96.359,251.26z" />
		</symbol>

		<symbol id="arrow-down" viewBox="0 0 32 32">
			<path d="M11.125 16.313l7.688-7.688 3.594 3.719-11.094 11.063-11.313-11.313 3.5-3.531z"></path>
		</symbol>

		<symbol id="image" viewBox="0 0 24 24">
			<path clip-rule="evenodd" d="m10.9849 7c0 1.1-.9 2-2.00004 2-1.1 0-2-.9-2-2s.9-2 2-2c1.10004 0 2.00004.9 2.00004 2zm.6 7.05 3.49-5.59004c.41-.65 1.36-.62 1.73.05l4.88 9.01004c.36.67-.12 1.48-.88 1.48h-17.60997c-.76 0-1.25-.82-.86-1.49l3.08-5.48c.31-.54 1.02-.68 1.5-.29l3.19997 2.56c.46.37 1.15.26 1.47-.25z"></path>
		</symbol>

		<symbol id="file-plus" viewBox="0 0 24 24">
			<path d="m20.75 8.414c0-.464-.184-.909-.513-1.237-1.018-1.018-4.396-4.396-5.414-5.414-.328-.329-.773-.513-1.237-.513-1.27 0-5.17 0-7.586 0-.729 0-1.429.29-1.945.805-.515.516-.805 1.216-.805 1.945v16c0 .729.29 1.429.805 1.945.516.515 1.216.805 1.945.805h12c1.519 0 2.75-1.231 2.75-2.75zm-1.5 0v11.586c0 .69-.56 1.25-1.25 1.25h-12c-.332 0-.649-.132-.884-.366-.234-.235-.366-.552-.366-.884v-16c0-.332.132-.649.366-.884.235-.234.552-.366.884-.366h7.586c.066 0 .13.026.177.073l5.414 5.414c.047.047.073.111.073.177z"></path>
			<path d="m13.25 2.5v3.5c0 1.519 1.231 2.75 2.75 2.75h3.5c.414 0 .75-.336.75-.75s-.336-.75-.75-.75h-3.5c-.69 0-1.25-.56-1.25-1.25v-3.5c0-.414-.336-.75-.75-.75s-.75.336-.75.75z"></path>
			<path d="m11.25 11.5v5c0 .414.336.75.75.75s.75-.336.75-.75v-5c0-.414-.336-.75-.75-.75s-.75.336-.75.75z"></path>
			<path d="m9.5 14.75h5c.414 0 .75-.336.75-.75s-.336-.75-.75-.75h-5c-.414 0-.75.336-.75.75s.336.75.75.75z"></path>
		</symbol>

		<symbol id="error" viewBox="0 0 24 24">
			<g stroke-width="0"></g>
			<g stroke-linecap="round" stroke-linejoin="round"></g>
			<g>
				<g>
					<path fill="none" d="M0 0h24v24H0z"></path>
					<path d="M12 22C6.477 22 2 17.523 2 12S6.477 2 12 2s10 4.477 10 10-4.477 10-10 10zm-1-7v2h2v-2h-2zm0-8v6h2V7h-2z"></path>
				</g>
			</g>
		</symbol>

		<symbol id="directory" viewBox="0 0 601.705 601.705">
			<path clip-rule="evenodd" d="m530.516 536.872h-392.006c-37.409 0-74.936-28.189-85.371-64.131l-50.379-173.529c-11.531-39.719 14.239-74.064 55.593-74.064h8.969v-89.121c0-39.321 31.875-71.194 71.2-71.194h142.509c16.239 0 34.092 10.322 42.129 24.386l18.013 31.523c1.678 2.935 7.718 6.436 11.075 6.436h178.146c39.358 0 71.311 31.918 71.311 71.209v267.276c0 36.229-27.04 66.137-62.042 70.626-2.621.341-5.32.535-8.09.575-.353.005-.705.008-1.057.008zm-427.569-311.724h347.412c37.409 0 74.936 28.189 85.371 64.131l30.349 104.536v-195.428c0-19.607-15.994-35.583-35.685-35.583h-178.146c-16.134 0-33.983-10.344-42.007-24.386l-18.013-31.523c-1.683-2.945-7.721-6.436-11.197-6.436h-142.509c-19.65 0-35.575 15.923-35.575 35.568z" fill-rule="evenodd"></path>
		</symbol>

		<symbol id="cat" viewBox="0 0 16 16">
			<path fill-rule="evenodd" clip-rule="evenodd" d="M1 7L4.80061 1.43926C5.56059 0.527292 6.68638 0 7.8735 0H8V4L12 5L15 10L14.1875 11.2188C13.4456 12.3316 12.1967 13 10.8593 13H9L7 16H5L1 7ZM10 9C10.5523 9 11 8.55229 11 8C11 7.44772 10.5523 7 10 7C9.44771 7 9 7.44772 9 8C9 8.55229 9.44771 9 10 9Z" />
			<path d="M10 0.465878V2.43845L12 2.93845V0H11.8735C11.2125 0 10.5704 0.163501 10 0.465878Z" />
		</symbol>

		<symbol id="refresh" viewBox="0 0 438.542 438.542">
			<path d="M427.408,19.697c-7.803-3.23-14.463-1.902-19.986,3.999l-37.116,36.834C349.94,41.305,326.672,26.412,300.5,15.848
						C274.328,5.285,247.251,0.003,219.271,0.003c-29.692,0-58.052,5.808-85.08,17.417c-27.03,11.61-50.347,27.215-69.951,46.82
						c-19.605,19.607-35.214,42.921-46.824,69.949C5.807,161.219,0,189.575,0,219.271c0,29.687,5.807,58.05,17.417,85.079
						c11.613,27.031,27.218,50.347,46.824,69.952c19.604,19.599,42.921,35.207,69.951,46.818c27.028,11.611,55.388,17.419,85.08,17.419
						c32.736,0,63.865-6.899,93.363-20.7c29.5-13.795,54.625-33.26,75.377-58.386c1.52-1.903,2.234-4.045,2.136-6.424
						c-0.089-2.378-0.999-4.329-2.711-5.852l-39.108-39.399c-2.101-1.711-4.473-2.566-7.139-2.566c-3.045,0.38-5.232,1.526-6.566,3.429
						c-13.895,18.086-30.93,32.072-51.107,41.977c-20.173,9.894-41.586,14.839-64.237,14.839c-19.792,0-38.684-3.854-56.671-11.564
						c-17.989-7.706-33.551-18.127-46.682-31.261c-13.13-13.135-23.551-28.691-31.261-46.682c-7.708-17.987-11.563-36.874-11.563-56.671
						c0-19.795,3.858-38.691,11.563-56.674c7.707-17.985,18.127-33.547,31.261-46.678c13.135-13.134,28.693-23.555,46.682-31.265
						c17.983-7.707,36.879-11.563,56.671-11.563c38.259,0,71.475,13.039,99.646,39.116l-39.409,39.394
						c-5.903,5.711-7.231,12.279-4.001,19.701c3.241,7.614,8.856,11.42,16.854,11.42h127.906c4.949,0,9.23-1.807,12.848-5.424
						c3.613-3.616,5.42-7.898,5.42-12.847V36.55C438.542,28.558,434.84,22.943,427.408,19.697z"></path>
		</symbol>

		<symbol id="wrench" viewBox="0 0 56 56">
			<path d="M 4.7104 52.3069 C 8.4035 56 13.5066 55.7985 17.5130 51.8145 C 20.7136 48.6139 27.3611 37.3109 33.1357 31.5363 C 36.9854 27.6866 41.2380 29.7234 45.5131 27.9776 L 41.7080 14.1007 C 41.2380 12.3773 41.9318 10.9449 43.9239 10.4077 L 52.3169 8.1695 C 52.0483 7.3861 51.3098 6.3117 50.3922 5.3717 C 45.2220 .2 36.6720 -4.2744e-15 31.5689 4.834542597079431 C 24.1381 11.9297 29.7783 19.4276 24.8767 24.3293 C 18.7216 30.4844 9.7688 34.8265 5.2028 39.4820 C 1.1964 43.5108 .9726 48.5691 4.7104 52.3069 Z M 32.5314 18.3757 C 32.0390 18.5100 31.6360 18.2638 31.4570 17.7266 C 31.3227 17.3238 31.6137 16.8314 32.0837 16.6970 L 37.2988 15.2870 C 37.7240 15.1751 38.2164 15.4436 38.3507 15.9137 C 38.4850 16.4285 38.1940 16.8761 37.7240 17.0104 Z M 47.9976 26.9033 C 48.8479 26.3885 49.7431 25.7170 50.6608 24.8441 C 53.4812 22.2926 54.9357 18.4429 54.3540 15.7123 L 47.5722 17.5699 C 46.8113 17.7714 46.1846 17.8161 45.4682 17.7043 Z M 33.2028 21.0391 C 32.7104 21.1735 32.2852 20.9273 32.1061 20.3901 C 31.9718 19.9872 32.2627 19.4948 32.7328 19.3829 L 37.9478 17.9505 C 38.3731 17.8609 38.8655 18.1071 38.9998 18.5772 C 39.1564 19.0919 38.8431 19.5396 38.3731 19.6738 Z M 33.8519 23.7026 C 33.3818 23.8369 32.9119 23.5907 32.7999 23.0759 C 32.6880 22.6059 32.9566 22.1807 33.4266 22.0464 L 38.6193 20.6587 C 39.1117 20.5020 39.5817 20.7929 39.6936 21.2406 C 39.7832 21.6883 39.5146 22.1807 39.0893 22.2926 Z M 8.2244 48.8154 C 6.7024 47.2933 6.6800 44.7418 8.1796 43.2198 C 9.7016 41.6531 12.2308 41.7202 13.7975 43.1974 C 15.4091 44.7194 15.2524 47.2262 13.7752 48.8154 C 12.3651 50.3597 9.7240 50.3149 8.2244 48.8154 Z"></path>
		</symbol>

		<symbol id="sign-out" viewBox="0 -0.5 17 17">
			<g>
				<path d="M8.99511719,4.91699982 L10.9866943,4.91699982 L10.9866943,-1.83121302e-07 L0,-1.59161573e-11 L8.026,2.666 L8.026,14.917 L0.321,13 L0.106,13.829 L8.99511719,15.9820557 L8.99511719,12.8970557 L10.9866943,12.9149998 L10.9866943,9.04199982 L8.99511719,9.04199982 L8.99511719,4.91699982 Z" class="si-glyph-fill"></path>
				<path d="M14.904,7 L12.034,4.068 L12.034,6.055 L10,6.055 L10,7.971 L12.034,7.971 L12.034,10.033 L14.904,7 Z" class="si-glyph-fill"></path>
			</g>
			<rect x="6" y="8" width="0.958" height="0.916" class="si-glyph-fill"></rect>
		</symbol>

		<symbol id="confirm" viewBox="0 0 17.837 17.837">
			<path d="M16.145,2.571c-0.272-0.273-0.718-0.273-0.99,0L6.92,10.804l-4.241-4.27
						c-0.272-0.274-0.715-0.274-0.989,0L0.204,8.019c-0.272,0.271-0.272,0.717,0,0.99l6.217,6.258c0.272,0.271,0.715,0.271,0.99,0
						L17.63,5.047c0.276-0.273,0.276-0.72,0-0.994L16.145,2.571z"></path>
		</symbol>

		<symbol id="x" viewBox="0 0 426.667 426.667">
			<polygon points="426.667,59.733 366.933,0 213.333,153.6 59.733,0 0,59.733 153.6,213.333 0,366.933 59.733,426.667 
							213.333,273.067 366.933,426.667 426.667,366.933 273.067,213.333" />
		</symbol>

		<symbol id="edit" viewBox="0 0 492.49284 492">
			<path d="m304.140625 82.472656-270.976563 270.996094c-1.363281 1.367188-2.347656 3.09375-2.816406 4.949219l-30.035156 120.554687c-.898438 3.628906.167969 7.488282 2.816406 10.136719 2.003906 2.003906 4.734375 3.113281 7.527344 3.113281.855469 0 1.730469-.105468 2.582031-.320312l120.554688-30.039063c1.878906-.46875 3.585937-1.449219 4.949219-2.8125l271-270.976562zm0 0"></path>
			<path d="m476.875 45.523438-30.164062-30.164063c-20.160157-20.160156-55.296876-20.140625-75.433594 0l-36.949219 36.949219 105.597656 105.597656 36.949219-36.949219c10.070312-10.066406 15.617188-23.464843 15.617188-37.714843s-5.546876-27.648438-15.617188-37.71875zm0 0"></path>
		</symbol>

		<symbol id="settings" viewBox="0 0 25 25.001">
			<path d="M24.38,10.175l-2.231-0.268c-0.228-0.851-0.562-1.655-0.992-2.401l1.387-1.763c0.212-0.271,0.188-0.69-0.057-0.934
						l-2.299-2.3c-0.242-0.243-0.662-0.269-0.934-0.057l-1.766,1.389c-0.743-0.43-1.547-0.764-2.396-0.99L14.825,0.62
						C14.784,0.279,14.469,0,14.125,0h-3.252c-0.344,0-0.659,0.279-0.699,0.62L9.906,2.851c-0.85,0.227-1.655,0.562-2.398,0.991
						L5.743,2.455c-0.27-0.212-0.69-0.187-0.933,0.056L2.51,4.812C2.268,5.054,2.243,5.474,2.456,5.746L3.842,7.51
						c-0.43,0.744-0.764,1.549-0.991,2.4l-2.23,0.267C0.28,10.217,0,10.532,0,10.877v3.252c0,0.344,0.279,0.657,0.621,0.699l2.231,0.268
						c0.228,0.848,0.561,1.652,0.991,2.396l-1.386,1.766c-0.211,0.271-0.187,0.69,0.057,0.934l2.296,2.301
						c0.243,0.242,0.663,0.269,0.933,0.057l1.766-1.39c0.744,0.43,1.548,0.765,2.398,0.991l0.268,2.23
						c0.041,0.342,0.355,0.62,0.699,0.62h3.252c0.345,0,0.659-0.278,0.699-0.62l0.268-2.23c0.851-0.228,1.655-0.562,2.398-0.991
						l1.766,1.387c0.271,0.212,0.69,0.187,0.933-0.056l2.299-2.301c0.244-0.242,0.269-0.662,0.056-0.935l-1.388-1.764
						c0.431-0.744,0.764-1.548,0.992-2.397l2.23-0.268C24.721,14.785,25,14.473,25,14.127v-3.252
						C25.001,10.529,24.723,10.216,24.38,10.175z M12.501,18.75c-3.452,0-6.25-2.798-6.25-6.25s2.798-6.25,6.25-6.25
						s6.25,2.798,6.25,6.25S15.954,18.75,12.501,18.75z"></path>
		</symbol>

		<symbol id="plus-image" viewBox="0 0 24 24">
			<path d="M21 12V15V19C21 20.1046 20.1046 21 19 21H16M21 12C14.5577 12 10.8946 13.9852 8.94504 16.2427M21 12V10.5M3 16V19C3 20.1046 3.89543 21 5 21V21H7H16M3 16V5C3 3.89543 3.89543 3 5 3H13M3 16C4.40293 15.7662 6.63687 15.7073 8.94504 16.2427M16 21C14.2965 18.2317 11.5726 16.8522 8.94504 16.2427M8.5 7C8 7 7 7.3 7 8.5C7 9.7 8 10 8.5 10C9 10 10 9.7 10 8.5C10 7.3 9 7 8.5 7Z" stroke="#000000" stroke-linecap="round" stroke-linejoin="round" stroke-width="2"></path>
			<path d="M19 2V5M19 8V5M19 5H22M19 5H16" stroke="#000000" stroke-linecap="round" stroke-linejoin="round" stroke-width="2"></path>
		</symbol>

		<symbol id="password" viewBox="0 0 1000 1000">
			<g transform="matrix(.1 0 0 -.1 0 512)">
				<path d="m4759.1 5010.9c-1474.3-86.2-2799.2-788.8-3674.2-1945.3-47.9-65.1-68.9-113-68.9-158.9 0-114.9 111-189.6 220.2-149.3 17.2 7.7 93.8 91.9 170.4 187.6 721.8 905.6 1719.4 1493.4 2864.3 1684.9 884.6 149.4 1843.8 13.4 2680.5-379.1 132.1-61.3 155.1-61.3 227.9 0 63.2 51.7 78.5 128.3 40.2 201-42.1 76.6-524.6 279.5-926.7 390.6-492.1 134-1060.7 197.2-1533.7 168.5z"></path>
				<path d="m7636.9 4132.1c-76.6-40.2-101.5-168.5-47.9-233.6 9.6-13.4 107.2-91.9 212.5-174.2 271.9-212.5 449.9-381 656.7-622.3 693.1-809.9 1064.6-1769.1 1110.5-2854.8l11.5-298.7 55.5-45.9c74.6-63.2 139.7-61.3 208.7 7.6 53.6 53.6 55.5 63.2 55.5 225.9 0 649.1-164.7 1388.1-448 2018.1-336.9 744.8-966.9 1510.7-1594.8 1937.7-114.9 78.5-143.6 82.3-220.2 40.2z"></path>
				<path d="m4644.2 3816.2c-1257.9-118.7-2379.9-878.8-2952.4-2000.8-170.4-333.1-350.4-888.4-350.4-1083.7 0-145.5 151.3-220.2 256.6-124.5 38.3 32.5 57.4 82.3 90 231.7 212.5 999.5 871.2 1849.6 1790.2 2307.2 543.8 270 1202.4 400.2 1774.9 348.5 815.6-72.8 1516.4-388.7 2087-938.2 572.5-551.4 875-1152.6 1028.2-2041 34.5-193.4 47.9-237.4 88.1-271.9 61.3-55.5 145.5-55.5 210.6 0 63.2 55.5 65.1 114.9 9.6 417.4-122.5 675.9-358 1229.2-727.6 1711.7-122.5 162.7-444.2 490.2-614.6 628-758.3 612.6-1727.1 905.5-2690.2 815.6z"></path>
				<path d="m4615.5 2621.4c-1026.2-162.7-1832.3-913.3-2088.9-1943.4-61.3-247-67-823.3-9.6-1062.6 28.7-118.7 38.3-243.2 44-543.8 5.7-371.4 7.7-394.4 47.9-436.5 55.5-59.4 149.3-57.4 220.2 1.9l53.6 46 5.7 319.8c5.8 277.6 0 363.8-44 639.5-91.9 557.2-45.9 974.6 153.2 1395.8 270 568.7 723.7 976.5 1307.7 1171.8 1016.7 340.8 2148.2-116.8 2642.3-1068.4 145.5-279.5 216.3-538 289.1-1058.8 90-641.4 93.8-1365.2 9.6-1979.8-46-327.4-44.1-350.4 19.2-404 93.8-82.3 220.2-45.9 258.5 74.7 30.6 101.5 78.5 515 101.5 901.8 44 723.8-61.3 1753.8-229.8 2251.7-304.4 898-1089.5 1552.8-2033.4 1694.5-222.2 34.3-528.5 34.3-746.8-.2z"></path>
				<path d="m692.4 2407c-24.9-17.2-84.2-113-132.1-214.4-453.8-970.8-576.4-2062.2-348.5-3103.8 30.6-139.8 49.8-191.5 88.1-224 57.4-51.7 134-55.5 195.3-13.4 72.8 51.7 80.4 101.5 40.2 277.6-76.6 340.9-101.5 589.8-101.5 1003.3 0 691.2 114.9 1233 400.2 1870.6 132.1 292.9 135.9 352.3 26.8 407.8-69 36.5-113 36.5-168.5-3.7z"></path>
				<path d="m4682.5 1428.6c-463.4-118.7-811.8-442.3-968.8-901.8-21.1-57.4-36.4-132.1-36.4-168.5 0-137.9 172.3-212.5 264.2-114.9 23 24.9 55.5 91.9 72.8 149.4 130.2 442.3 528.4 744.8 984.1 744.8s871.2-317.8 984.1-754.4c53.6-201 109.1-626.1 132.1-1014.8 23-360 26.8-381 68.9-415.5 49.8-40.2 149.4-45.9 195.3-11.5 70.9 55.5 80.4 105.3 67 394.4-15.3 327.4-72.7 790.8-126.4 1041.6-109.1 497.8-436.5 865.4-919 1028.2-176 59.3-530.2 70.8-717.9 23z"></path>
				<path d="m4885.5 230c-51.7-55.5-55.5-111.1-13.4-346.5 245.1-1416.9-157-2927.5-1087.5-4072.5-139.8-170.4-164.7-212.5-164.7-271.9 0-112.9 107.2-187.6 214.4-147.4 65.1 24.9 325.5 350.4 538 672 183.8 279.5 448 796.5 557.2 1093.3 329.3 894.2 419.3 1864.9 260.4 2812.6-32.5 187.6-44 225.9-86.2 264.2-67 57.4-162.7 55.5-218.2-3.8z"></path>
				<path d="m1337.6 82.5-59.3-57.4 13.4-176.1c7.7-95.7 30.6-271.9 51.7-392.5 109.1-647.2-38.3-1150.7-459.5-1564.3-95.7-91.9-116.8-124.5-116.8-174.2 0-88.1 17.2-120.6 80.4-153.2 93.8-47.9 151.3-19.1 315.9 151.3 474.8 497.8 637.6 1095.2 495.9 1832.3-15.3 78.5-32.6 220.2-40.2 315.9-13.4 151.3-21.1 176.2-68.9 224-70.9 70.8-137.9 68.9-212.6-5.8z"></path>
				<path d="m3771.2-277.4c-55.5-55.5-55.5-59.4-42.1-197.2 26.8-258.5 15.3-850.1-21.1-1076.1-134-827.1-505.5-1562.4-1091.4-2171.2-151.3-157-172.3-185.7-172.3-247 0-86.2 76.6-158.9 166.6-158.9 51.7 0 88.1 28.7 243.2 185.7 616.5 628 1012.9 1407.3 1171.8 2303.3 34.5 199.1 42.1 314 42.1 670.1 1.9 509.3-11.5 637.6-74.7 700.8-65.1 65.2-151.3 61.3-222.1-9.5z"></path>
				<path d="m8531-267.8-46-45.9v-553.3c1.9-863.5-59.3-1365.2-271.9-2259.3-28.7-118.7-3.8-199.1 70.8-233.6 141.7-63.2 214.5 13.4 281.5 294.9 195.3 829 287.2 1742.3 247 2477.6-15.3 268.1-17.2 275.7-67 319.8-70.8 59.1-155 59.1-214.4-.2z"></path>
				<path d="m6195.1-1521.9c-80.4-34.5-101.5-84.2-143.6-365.7-126.4-850.1-457.6-1730.9-924.8-2460.3-155.1-243.2-170.4-310.2-82.3-384.8 72.8-63.2 155.1-59.4 218.3 9.6 153.2 166.6 545.7 892.2 718 1332.6 191.5 482.5 338.9 1035.8 404 1516.4 34.5 243.1 24.9 294.8-63.2 340.8-63.2 32.4-72.8 32.4-126.4 11.4z"></path>
				<path d="m2450-1868.5c-17.2-9.6-91.9-141.7-166.6-291-162.7-327.4-323.6-549.5-591.6-809.9-180-176.2-197.2-199.1-197.2-264.2 0-126.4 116.8-197.2 229.8-137.9 97.6 49.8 438.5 405.9 574.4 599.3 208.7 294.9 402.1 672 402.1 781.2 0 103.4-153.2 180-250.9 122.5z"></path>
				<path d="m7139.1-2785.6c-51.7-24.9-68.9-49.8-97.6-145.5-143.6-476.8-302.5-901.8-451.9-1215.8-70.8-149.3-72.7-191.5-13.4-260.4 49.8-61.3 157-72.8 212.5-26.8 103.4 86.2 492.1 1070.3 568.7 1437.9 21.1 103.4 19.2 116.8-15.3 164.7-51.8 68.9-124.5 86.1-203 45.9z"></path>
			</g>
		</symbol>

		<symbol id="user" viewBox="0 0 24 25">
			<g clip-rule="evenodd">
				<path d="m11.9934 11.027c-.6424 0-1.1972.5406-1.1972 1.25s.5548 1.25 1.1972 1.25 1.1972-.5406 1.1972-1.25-.5548-1.25-1.1972-1.25zm-2.6972 1.25c0-1.4997 1.1888-2.74996 2.6972-2.74996s2.6972 1.25026 2.6972 2.74996c0 1.4998-1.1888 2.75-2.6972 2.75s-2.6972-1.2502-2.6972-2.75zm5.6452 6.5005c-1.5211-1.6976-4.3605-1.6398-5.89171.0098-.2818.3036-.75635.3212-1.05993.0394s-.32124-.7563-.03944-1.0599c2.09588-2.2579 5.96328-2.3841 8.10828.0097.2764.3085.2504.7827-.0581 1.0591s-.7827.2504-1.0591-.0581z"></path>
				<path d="m10.25 4.27542c.0015.41421-.33299.75125-.7472.75279-1.33014.00496-2.2856.03181-3.0154.15316-.71136.11829-1.13418.31546-1.44646.61131-.34302.32496-.55499.77089-.67024 1.583-.11893.83803-.1207 1.94752-.1207 3.53292v4.7369c0 1.5854.00177 2.6949.1207 3.5329.11525.8121.32722 1.258.67024 1.583.34873.3304.83631.5385 1.71337.6503.89467.1139 2.07566.1153 3.74569.1153h3c1.67 0 2.851-.0014 3.7457-.1153.8771-.1118 1.3646-.3199 1.7134-.6503.343-.325.5549-.7709.6702-1.583.1189-.838.1207-1.9475.1207-3.5329v-4.7369c0-1.5854-.0018-2.69489-.1207-3.53292-.1153-.81211-.3272-1.25804-.6702-1.583-.3123-.29585-.7351-.49302-1.4465-.61131-.7298-.12135-1.6853-.1482-3.0154-.15316-.4142-.00154-.7487-.33858-.7472-.75279s.3386-.74874.7528-.7472c1.3142.0049 2.3883.02921 3.2559.17347.886.14733 1.6284.43024 2.232 1.00206.6821.64621.9827 1.46741 1.1237 2.46117.1356.95565.1356 2.1719.1356 3.68568v4.8529c0 1.5138 0 2.73-.1356 3.6857-.141.9937-.4416 1.8149-1.1237 2.4611-.6764.6408-1.5263.9183-2.5555 1.0493-1.0005.1275-2.2772.1275-3.882.1274h-3.1064c-1.60478.0001-2.8815.0001-3.88201-.1274-1.02914-.131-1.87908-.4085-2.55547-1.0493-.68211-.6462-.98271-1.4674-1.12374-2.4611-.13562-.9557-.1356-2.1719-.13558-3.6856v-4.8531c-.00002-1.5137-.00004-2.72993.13558-3.68558.14103-.99376.44163-1.81496 1.12374-2.46117.60359-.57182 1.34601-.85473 2.23203-1.00206.86756-.14426 1.9416-.16857 3.25586-.17347.41421-.00154.75129.33299.75279.7472z"></path>
				<path d="m11.9239 1.52701c.025.00002.0504.00003.0761.00003s.0511-.00001.0761-.00003c.3954-.00026.7126-.00047 1.0007.06584.6632.15263 1.2477.56624 1.5738 1.16585.1425.26195.2125.56634.2907.90631.0057.0247.0115.04958.0173.07465l.0833.36012c.0026.01161.0053.02319.008.03474.0782.33791.1498.64754.1812.90732.0337.27894.036.60125-.1101.92328-.1492.32908-.3976.59796-.7007.78206-.2851.17319-.5942.23033-.8829.25564-.2768.02426-.6176.02424-1.008.02422h-1.0588c-.3904.00002-.7312.00004-1.008-.02422-.2887-.02531-.59777-.08245-.88292-.25564-.30312-.1841-.55144-.45298-.70072-.78206-.14608-.32203-.14378-.64434-.11008-.92328.03139-.25978.10304-.56941.18123-.90732.00268-.01155.00536-.02313.00804-.03474l.0833-.36012c.0058-.02507.01152-.04996.0172-.07465.07821-.33997.14824-.64436.29073-.90631.32617-.59961.91072-1.01322 1.57382-1.16585.2881-.06631.6053-.0661 1.0007-.06584zm.0761 1.50003c-.5097 0-.6409.00471-.7403.02759-.2822.06494-.4895.23127-.5927.42083-.0314.05778-.0579.14279-.1641.60223l-.0833.36012c-.0889.38426-.141.61405-.1616.78397-.0094.07852-.0085.11916-.0071.13555.0186.03482.0525.07439.1074.10779l.0014.00072s.0029.00139.0058.00259c.0059.00241.0167.00636.0345.01101.0374.0098.0972.02066.1936.0291.2033.01782.4774.0185.9083.0185h.9962c.4309 0 .705-.00068.9083-.0185.0964-.00844.1562-.0193.1936-.0291.0178-.00465.0286-.0086.0345-.01101.0029-.0012.0058-.00259.0058-.00259l.0011-.00055c.055-.0334.0891-.07314.1077-.10796.0014-.01639.0023-.05703-.0071-.13555-.0206-.16992-.0727-.39971-.1616-.78397l-.0833-.36012c-.1062-.45944-.1327-.54445-.1641-.60223-.1032-.18956-.3105-.35589-.5927-.42083-.0994-.02288-.2306-.02759-.7403-.02759zm1.748 2.33921.0004-.00212zm-3.496 0-.0004-.00212z"></path>
			</g>
		</symbol>

		<symbol id="circle" viewBox="0 0 512 512">
			<circle cx="256" cy="256" r="256"></circle>
		</symbol>

		<symbol id="email" viewBox="0 0 512 512">
			<path d="M256,0C114.844,0,0,114.844,0,256s114.844,256,256,256c68.385,0,132.667-26.625,181.021-74.979
							c4.167-4.167,4.167-10.917,0-15.083c-4.167-4.167-10.917-4.167-15.083,0C377.615,466.26,318.688,490.667,256,490.667
							C126.604,490.667,21.333,385.396,21.333,256S126.604,21.333,256,21.333S490.667,126.604,490.667,256v21.333
							c0,35.292-28.708,64-64,64s-64-28.708-64-64v-96c0-5.896-4.771-10.667-10.667-10.667c-5.896,0-10.667,4.771-10.667,10.667v11.327
							c-19.461-26.138-50.319-43.327-85.333-43.327c-58.813,0-106.667,47.854-106.667,106.667S197.188,362.667,256,362.667
							c39.229,0,73.206-21.53,91.734-53.163c12.737,31.132,43.271,53.163,78.932,53.163c47.052,0,85.333-38.281,85.333-85.333V256
							C512,114.844,397.156,0,256,0z M256,341.333c-47.052,0-85.333-38.281-85.333-85.333s38.281-85.333,85.333-85.333
							s85.333,38.281,85.333,85.333S303.052,341.333,256,341.333z"></path>
		</symbol>
		<symbol id="openeye" viewBox="0 0 512 512">
			<path d="M508.177,245.995C503.607,240.897,393.682,121,256,121S8.394,240.897,3.823,245.995c-5.098,5.698-5.098,14.312,0,20.01
							C8.394,271.103,118.32,391,256,391s247.606-119.897,252.177-124.995C513.274,260.307,513.274,251.693,508.177,245.995z M256,361
							c-57.891,0-105-47.109-105-105s47.109-105,105-105s105,47.109,105,105S313.891,361,256,361z"></path>
			<path d="M271,226c0-15.09,7.491-28.365,18.887-36.53C279.661,184.235,268.255,181,256,181c-41.353,0-75,33.647-75,75
							c0,41.353,33.647,75,75,75c37.024,0,67.668-27.034,73.722-62.358C299.516,278.367,271,255.522,271,226z"></path>
		</symbol>
		<symbol id="closedeye" viewBox="0 0 512 512">
			<path d="m436.193 169.626c-5.507-4.735-11.04-9.258-16.589-13.59l-64.701 64.701c3.942 11.027 6.097 22.898 6.097 35.263 0 57.897-47.103 105-105 105-12.365 0-24.236-2.155-35.263-6.098l-48.558 48.558c28.356 11.632 56.481 17.54 83.821 17.54 32.657 0 66.432-8.396 100.384-24.955 26.662-13.005 53.514-31.063 79.809-53.671 44.455-38.226 71.841-76.024 72.984-77.615 3.765-5.232 3.765-12.285 0-17.518-1.144-1.591-28.529-39.389-72.984-77.615z"></path>
			<path d="m256 331c41.355 0 75-33.645 75-75 0-3.598-.27-7.134-.763-10.598l-84.835 84.835c3.465.493 7 .763 10.598.763z"></path>
			<path d="m507.607 4.394c-5.857-5.857-15.355-5.857-21.213 0l-117.848 117.848c-4.056-2.208-8.111-4.311-12.162-6.286-33.952-16.56-67.727-24.956-100.384-24.956s-66.432 8.396-100.384 24.955c-26.662 13.005-53.514 31.063-79.809 53.671-44.454 38.226-71.84 76.024-72.984 77.615-3.765 5.232-3.765 12.285 0 17.518 1.144 1.591 28.529 39.39 72.984 77.615 13.623 11.713 27.396 22.192 41.214 31.391l-112.627 112.629c-5.858 5.857-5.858 15.355 0 21.213 2.929 2.928 6.767 4.393 10.606 4.393s7.678-1.465 10.606-4.394l482-482c5.859-5.857 5.859-15.355.001-21.212zm-356.607 251.606c0-57.897 47.103-105 105-105 23.551 0 45.315 7.794 62.85 20.938l-21.52 21.52c-11.859-7.864-26.065-12.458-41.33-12.458-41.355 0-75 33.645-75 75 0 15.264 4.594 29.47 12.458 41.33l-21.52 21.52c-13.144-17.535-20.938-39.299-20.938-62.85z"></path>
		</symbol>
		<symbol id="title" viewBox="0 0 512 512">
			<path d="M46.5,0v139.6h23.3c0-23.3,0-69.8,23.3-93.1c23.2-23.3,46.5-23.3,69.8-23.3h46.5v395.6c0,34.9-11.6,69.8-46.5,69.8l-22.8,0 l-0.5,23.2h232.7v-23.3h-23.3c-34.9,0-46.5-34.9-46.5-69.8V23.3h46.5c23.3,0,46.5,0,69.8,23.3s23.3,69.8,23.3,93.1h23.3V0H46.5z"></path>
		</symbol>

		<symbol id="t" viewBox="0 0 24 24">
			<path d="M13.4303 15.0014H4.40034C2.58034 15.0014 1.42034 13.0514 2.30034 11.4514L4.63034 7.21141L6.81034 3.24141C7.72034 1.59141 10.1003 1.59141 11.0103 3.24141L13.2003 7.21141L14.2503 9.12141L15.5303 11.4514C16.4103 13.0514 15.2503 15.0014 13.4303 15.0014Z"></path>
			<path d="M22.6507 15.999C22.6507 19.589 19.7407 22.499 16.1507 22.499C13.1007 22.499 10.5507 20.409 9.84075 17.569C9.77075 17.269 10.0007 16.999 10.3107 16.999H14.0807C15.4707 16.999 16.7307 16.279 17.4407 15.089C18.1407 13.889 18.1707 12.449 17.4907 11.229L16.9907 10.309C16.8007 9.96898 17.0707 9.55898 17.4507 9.62898C20.4107 10.229 22.6507 12.849 22.6507 15.999Z"></path>
		</symbol>

		<symbol id="hashtag" viewBox="0 0 16 16">
			<path d="M7.75964,14l.752-2.91423H6.04471L5.2992,14H3.53241l.74552-2.91423H2V9.36536H4.71227L5.4134,6.55884H2.947V4.83843H5.85721L6.56682,2H8.33311L7.6235,4.83843h2.45895L10.79953,2h1.76829l-.71709,2.83843H14V6.55884H11.40143l-.70662,2.80652h2.37467v1.72041h-2.807L9.5005,14Zm-1.313-4.60771H8.95346L9.673,6.54189H7.16722Z"></path>
		</symbol>

		<symbol id="link" viewBox="0 0 1920 1920">
			<path d="m1311.326 891.546-61.666-61.666 107.294-107.407-159.698-159.698-107.52 107.633-61.553-60.311 384.338-384.904 282.127 281.45-383.322 384.903ZM891.863 1309.43 508.54 1694.332l-283.143-281.45 384.339-384.903 61.214 61.214-110.005 109.892 159.699 159.699 110.117-110.005 61.102 60.65Zm962.484-961.92-283.03-283.03c-88.546-86.288-231.19-85.95-317.93 1.016L868.484 450.398c-87.53 87.642-87.53 230.061 0 317.704l61.666 61.778-99.502 99.502-60.31-60.198c-42.127-43.144-98.372-67.087-158.57-67.426h-1.355c-60.197 0-116.894 23.605-159.812 66.41L65.698 1253.184c-87.642 87.642-87.642 230.061 0 317.704L348.84 1854.03c43.822 43.821 101.309 65.732 158.909 65.732 57.487 0 115.087-21.91 158.908-65.732l384.903-384.903c43.257-43.257 66.862-100.518 66.523-161.168-.452-60.197-24.396-116.442-66.523-157.665l-61.214-61.102 99.614-99.614 61.666 61.78c43.821 43.707 101.309 65.618 158.909 65.618 57.487 0 115.087-21.91 158.795-65.732l385.016-384.903c86.852-86.852 87.304-229.497 0-318.833Z" fill-rule="evenodd"></path>
		</symbol>

		<symbol id="info" viewbox="0 0 24 24">
			<path fill-rule="evenodd" clip-rule="evenodd" d="M1 12C1 5.92487 5.92487 1 12 1C18.0751 1 23 5.92487 23 12C23 18.0751 18.0751 23 12 23C5.92487 23 1 18.0751 1 12ZM10.25 11C10.25 10.4477 10.6977 10 11.25 10H12.75C13.3023 10 13.75 10.4477 13.75 11V18C13.75 18.5523 13.3023 19 12.75 19H11.25C10.6977 19 10.25 18.5523 10.25 18V11ZM14 7C14 5.89543 13.1046 5 12 5C10.8954 5 10 5.89543 10 7C10 8.10457 10.8954 9 12 9C13.1046 9 14 8.10457 14 7Z"></path>
		</symbol>

		<symbol id="home" viewBox="0 0 32 32">
			<path d="M27 18.039L16 9.501 5 18.039V14.56l11-8.54 11 8.538v3.481zm-2.75-.31v8.251h-5.5v-5.5h-5.5v5.5h-5.5v-8.25L16 11.543l8.25 6.186z"></path>
		</symbol>

		<symbol id="arrowright" viewBox="0 0 492.004 492.004">
			<path d="M484.14,226.886L306.46,49.202c-5.072-5.072-11.832-7.856-19.04-7.856c-7.216,0-13.972,2.788-19.044,7.856l-16.132,16.136
							c-5.068,5.064-7.86,11.828-7.86,19.04c0,7.208,2.792,14.2,7.86,19.264L355.9,207.526H26.58C11.732,207.526,0,219.15,0,234.002
							v22.812c0,14.852,11.732,27.648,26.58,27.648h330.496L252.248,388.926c-5.068,5.072-7.86,11.652-7.86,18.864
							c0,7.204,2.792,13.88,7.86,18.948l16.132,16.084c5.072,5.072,11.828,7.836,19.044,7.836c7.208,0,13.968-2.8,19.04-7.872
							l177.68-177.68c5.084-5.088,7.88-11.88,7.86-19.1C492.02,238.762,489.228,231.966,484.14,226.886z"></path>
		</symbol>

		<symbol id="plus" viewBox="0 0 512 512">
			<polygon points="298.7,213.3 298.7,0 213.3,0 213.3,213.3 0,213.3 0,298.7 213.3,298.7 213.3,512 298.7,512 298.7,298.7 512,298.7 512,213.3 "></polygon>
		</symbol>

		<symbol id="save" viewBox="0 0 24 24">
			<path d="M17 3H5c-1.11 0-2 .9-2 2v14c0 1.1.89 2 2 2h14c1.1 0 2-.9 2-2V7l-4-4zm-5 16c-1.66 0-3-1.34-3-3s1.34-3 3-3 3 1.34 3 3-1.34 3-3 3zm3-10H5V5h10v4z" />
		</symbol>

		<symbol id="draft" viewBox="0 0 24 24">
			<g stroke-width="0"></g>
			<g stroke-linecap="round" stroke-linejoin="round"></g>
			<g>
				<path fill-rule="evenodd" d="M17,21 L17,23 L15,23 L15,21 L17,21 Z M19,21 L21,21 C21,22.1045695 20.1045695,23 19,23 L19,21 Z M13,21 L13,23 L11,23 L11,21 L13,21 Z M9,21 L9,23 L7,23 L7,21 L9,21 Z M5,21 L5,23 C3.8954305,23 3,22.1045695 3,21 L5,21 Z M19,13 L21,13 L21,15 L19,15 L19,13 Z M19,11 L19,9 L15,9 C13.8954305,9 13,8.1045695 13,7 L13,3 L5,3 L5,11 L3,11 L3,3 C3,1.8954305 3.8954305,1 5,1 L15.4142136,1 L21,6.58578644 L21,11 L19,11 Z M5,13 L5,15 L3,15 L3,13 L5,13 Z M19,17 L21,17 L21,19 L19,19 L19,17 Z M5,17 L5,19 L3,19 L3,17 L5,17 Z M15,3.41421356 L15,7 L18.5857864,7 L15,3.41421356 Z"></path>
			</g>
		</symbol>

		<symbol id="skip" viewBox="0 0 16 16">
			<g stroke-width="0"></g>
			<g stroke-linecap="round" stroke-linejoin="round"></g>
			<g>
				<path fill-rule="evenodd" d="M8 0a8 8 0 100 16A8 8 0 008 0zM1.5 8a6.5 6.5 0 0110.535-5.096l-9.131 9.131A6.472 6.472 0 011.5 8zm2.465 5.096a6.5 6.5 0 009.131-9.131l-9.131 9.131z" clip-rule="evenodd"></path>
			</g>
		</symbol>
	</defs>
</svg>
